<svg width="24" height="23" viewBox="0 0 24 23" fill="none" xmlns="http://www.w3.org/2000/svg">
<path d="M2.03443 16.696C1.03352 12.6924 0.533072 10.6918 1.58414 9.34556C2.63404 7.99936 4.69884 7.99936 8.82495 7.99936H14.2261C18.3534 7.99936 20.4158 7.99936 21.4669 9.34556C22.518 10.6906 22.0175 12.6936 21.0166 16.696C20.3797 19.2426 20.0624 20.5153 19.1128 21.2573C18.1632 21.998 16.8509 21.998 14.2261 21.998H8.82495C6.2002 21.998 4.88782 21.998 3.93825 21.2573C2.98867 20.5153 2.6702 19.2426 2.03443 16.696Z" stroke="#452A12" stroke-width="2"/>
<path d="M20.2747 8.58265L19.4464 5.54377C19.1268 4.37139 18.9669 3.78577 18.6391 3.34365C18.3123 2.9044 17.8684 2.56603 17.3583 2.36724C16.845 2.1666 16.2384 2.1666 15.0252 2.1666M2.77632 8.58265L3.60458 5.54377C3.92421 4.37139 4.08403 3.78577 4.41183 3.34365C4.73867 2.9044 5.18256 2.56603 5.69271 2.36724C6.20599 2.1666 6.8126 2.1666 8.02582 2.1666" stroke="#452A12" stroke-width="2"/>
<path d="M8.02582 2.16656C8.02582 1.85717 8.14872 1.56045 8.36749 1.34168C8.58627 1.1229 8.88298 1 9.19237 1H13.8586C14.168 1 14.4647 1.1229 14.6835 1.34168C14.9022 1.56045 15.0252 1.85717 15.0252 2.16656C15.0252 2.47595 14.9022 2.77266 14.6835 2.99143C14.4647 3.21021 14.168 3.33311 13.8586 3.33311H9.19237C8.88298 3.33311 8.58627 3.21021 8.36749 2.99143C8.14872 2.77266 8.02582 2.47595 8.02582 2.16656Z" stroke="#452A12" stroke-width="2"/>
<path d="M2.77632 18.4984L11.5255 7.99936M20.2747 18.4984L12.1088 8.58264M2.77632 9.16591L11.5255 21.998L20.2747 9.16591" stroke="#452A12" stroke-width="2" stroke-linecap="round" stroke-linejoin="round"/>
</svg>
