<svg width="25" height="25" viewBox="0 0 25 25" fill="none" xmlns="http://www.w3.org/2000/svg">
<path d="M25 15.3409C25 13.5682 23.8295 12.0795 22.2159 11.5682C22.5341 11 22.7273 10.3523 22.7273 9.65909C22.7273 7.88636 21.5568 6.39773 19.9432 5.88636C20.2614 5.31818 20.4545 4.67045 20.4545 3.97727C20.4545 1.78409 18.6705 0 16.4773 0H8.52273C6.32955 0 4.54545 1.78409 4.54545 3.97727C4.54545 4.67045 4.73864 5.31818 5.05682 5.88636C3.45455 6.39773 2.27273 7.88636 2.27273 9.65909C2.27273 10.3523 2.46591 11 2.78409 11.5682C1.18182 12.0795 0 13.5682 0 15.3409C0 16.7727 0.761364 18 1.89773 18.7045C1.42045 19.3523 1.13636 20.1591 1.13636 21.0227C1.13636 23.2159 2.92045 25 5.11364 25H19.8864C22.0795 25 23.8636 23.2159 23.8636 21.0227C23.8636 20.1591 23.5795 19.3523 23.1023 18.7045C24.2386 18 25 16.7727 25 15.3409ZM8.52273 2.27273H16.4773C17.4205 2.27273 18.1818 3.03409 18.1818 3.97727C18.1818 4.92045 17.4205 5.68182 16.4773 5.68182H8.52273C7.57955 5.68182 6.81818 4.92045 6.81818 3.97727C6.81818 3.03409 7.57955 2.27273 8.52273 2.27273ZM6.25 7.95455H18.75C19.6932 7.95455 20.4545 8.71591 20.4545 9.65909C20.4545 10.6023 19.6932 11.3636 18.75 11.3636H6.25C5.30682 11.3636 4.54545 10.6023 4.54545 9.65909C4.54545 8.71591 5.30682 7.95455 6.25 7.95455ZM3.40909 21.0227C3.40909 20.0795 4.17045 19.3182 5.11364 19.3182H9.09091V22.7273H5.11364C4.17045 22.7273 3.40909 21.9659 3.40909 21.0227ZM19.8864 22.7273H15.9091V19.3182H19.8864C20.8295 19.3182 21.5909 20.0795 21.5909 21.0227C21.5909 21.9659 20.8295 22.7273 19.8864 22.7273ZM21.0227 17.0455H15.7045C15.2273 15.7273 13.9773 14.7727 12.5 14.7727C11.0227 14.7727 9.77273 15.7273 9.29545 17.0455H3.97727C3.03409 17.0455 2.27273 16.2841 2.27273 15.3409C2.27273 14.3977 3.03409 13.6364 3.97727 13.6364H21.0227C21.9659 13.6364 22.7273 14.3977 22.7273 15.3409C22.7273 16.2841 21.9659 17.0455 21.0227 17.0455Z" fill="#452A12"/>
</svg>
